<mxfile host="app.diagrams.net" modified="2023-07-23T10:01:38.736Z" agent="Mozilla/5.0 (Windows NT 10.0; Win64; x64) AppleWebKit/537.36 (KHTML, like Gecko) Chrome/114.0.0.0 Safari/537.36" etag="zIovywgQ8drwA5a-b9Yt" version="21.6.5" type="github">
  <diagram id="C5RBs43oDa-KdzZeNtuy" name="Page-1">
    <mxGraphModel dx="947" dy="454" grid="1" gridSize="10" guides="1" tooltips="1" connect="1" arrows="1" fold="1" page="1" pageScale="1" pageWidth="827" pageHeight="1169" math="0" shadow="0">
      <root>
        <mxCell id="WIyWlLk6GJQsqaUBKTNV-0" />
        <mxCell id="WIyWlLk6GJQsqaUBKTNV-1" parent="WIyWlLk6GJQsqaUBKTNV-0" />
        <mxCell id="EC_hGHCCztslLlzqZgj_-5" value="Start" style="ellipse;whiteSpace=wrap;html=1;" vertex="1" parent="WIyWlLk6GJQsqaUBKTNV-1">
          <mxGeometry x="10" width="120" height="80" as="geometry" />
        </mxCell>
        <mxCell id="EC_hGHCCztslLlzqZgj_-7" value="" style="endArrow=classic;html=1;rounded=0;" edge="1" parent="WIyWlLk6GJQsqaUBKTNV-1">
          <mxGeometry width="50" height="50" relative="1" as="geometry">
            <mxPoint x="70" y="80" as="sourcePoint" />
            <mxPoint x="70" y="120" as="targetPoint" />
          </mxGeometry>
        </mxCell>
        <mxCell id="EC_hGHCCztslLlzqZgj_-8" value="&amp;nbsp;Input credit card information" style="rounded=0;whiteSpace=wrap;html=1;" vertex="1" parent="WIyWlLk6GJQsqaUBKTNV-1">
          <mxGeometry x="10" y="120" width="120" height="60" as="geometry" />
        </mxCell>
        <mxCell id="EC_hGHCCztslLlzqZgj_-9" value="" style="endArrow=classic;html=1;rounded=0;" edge="1" parent="WIyWlLk6GJQsqaUBKTNV-1">
          <mxGeometry width="50" height="50" relative="1" as="geometry">
            <mxPoint x="69.71000000000001" y="180" as="sourcePoint" />
            <mxPoint x="69.71000000000001" y="220" as="targetPoint" />
          </mxGeometry>
        </mxCell>
        <mxCell id="EC_hGHCCztslLlzqZgj_-10" value="merchant&#39;s payment gateway send authorization request to acquiring bank" style="whiteSpace=wrap;html=1;" vertex="1" parent="WIyWlLk6GJQsqaUBKTNV-1">
          <mxGeometry x="10" y="220" width="120" height="60" as="geometry" />
        </mxCell>
        <mxCell id="EC_hGHCCztslLlzqZgj_-11" value="" style="endArrow=classic;html=1;rounded=0;" edge="1" parent="WIyWlLk6GJQsqaUBKTNV-1">
          <mxGeometry width="50" height="50" relative="1" as="geometry">
            <mxPoint x="69.71000000000001" y="280" as="sourcePoint" />
            <mxPoint x="69.71000000000001" y="320" as="targetPoint" />
          </mxGeometry>
        </mxCell>
        <mxCell id="EC_hGHCCztslLlzqZgj_-12" value="Acquiring bank forwards the request to issuing Bank" style="whiteSpace=wrap;html=1;" vertex="1" parent="WIyWlLk6GJQsqaUBKTNV-1">
          <mxGeometry x="10" y="320" width="120" height="60" as="geometry" />
        </mxCell>
        <mxCell id="EC_hGHCCztslLlzqZgj_-13" value="" style="endArrow=classic;html=1;rounded=0;" edge="1" parent="WIyWlLk6GJQsqaUBKTNV-1">
          <mxGeometry width="50" height="50" relative="1" as="geometry">
            <mxPoint x="69.71000000000001" y="820" as="sourcePoint" />
            <mxPoint x="69.71000000000001" y="860" as="targetPoint" />
          </mxGeometry>
        </mxCell>
        <mxCell id="EC_hGHCCztslLlzqZgj_-14" value="" style="endArrow=classic;html=1;rounded=0;" edge="1" parent="WIyWlLk6GJQsqaUBKTNV-1">
          <mxGeometry width="50" height="50" relative="1" as="geometry">
            <mxPoint x="69.71000000000001" y="720" as="sourcePoint" />
            <mxPoint x="69.71000000000001" y="760" as="targetPoint" />
          </mxGeometry>
        </mxCell>
        <mxCell id="EC_hGHCCztslLlzqZgj_-15" value="" style="endArrow=classic;html=1;rounded=0;" edge="1" parent="WIyWlLk6GJQsqaUBKTNV-1">
          <mxGeometry width="50" height="50" relative="1" as="geometry">
            <mxPoint x="69.71" y="600" as="sourcePoint" />
            <mxPoint x="69.71" y="640" as="targetPoint" />
          </mxGeometry>
        </mxCell>
        <mxCell id="EC_hGHCCztslLlzqZgj_-16" value="" style="endArrow=classic;html=1;rounded=0;" edge="1" parent="WIyWlLk6GJQsqaUBKTNV-1">
          <mxGeometry width="50" height="50" relative="1" as="geometry">
            <mxPoint x="69.71" y="480" as="sourcePoint" />
            <mxPoint x="69.71" y="520" as="targetPoint" />
          </mxGeometry>
        </mxCell>
        <mxCell id="EC_hGHCCztslLlzqZgj_-17" value="" style="endArrow=classic;html=1;rounded=0;" edge="1" parent="WIyWlLk6GJQsqaUBKTNV-1">
          <mxGeometry width="50" height="50" relative="1" as="geometry">
            <mxPoint x="69.71000000000001" y="380" as="sourcePoint" />
            <mxPoint x="69.71000000000001" y="420" as="targetPoint" />
          </mxGeometry>
        </mxCell>
        <mxCell id="EC_hGHCCztslLlzqZgj_-18" value="Issuing bank validates the request" style="whiteSpace=wrap;html=1;" vertex="1" parent="WIyWlLk6GJQsqaUBKTNV-1">
          <mxGeometry x="10" y="420" width="120" height="60" as="geometry" />
        </mxCell>
        <mxCell id="EC_hGHCCztslLlzqZgj_-19" value="is card valid" style="rhombus;whiteSpace=wrap;html=1;" vertex="1" parent="WIyWlLk6GJQsqaUBKTNV-1">
          <mxGeometry x="30" y="520" width="80" height="80" as="geometry" />
        </mxCell>
        <mxCell id="EC_hGHCCztslLlzqZgj_-21" value="Sufficient Credit Available" style="rhombus;whiteSpace=wrap;html=1;" vertex="1" parent="WIyWlLk6GJQsqaUBKTNV-1">
          <mxGeometry x="30" y="640" width="80" height="80" as="geometry" />
        </mxCell>
        <mxCell id="EC_hGHCCztslLlzqZgj_-22" value="Issuing bank sends authorization response to acquiring bank" style="whiteSpace=wrap;html=1;" vertex="1" parent="WIyWlLk6GJQsqaUBKTNV-1">
          <mxGeometry x="10" y="760" width="120" height="60" as="geometry" />
        </mxCell>
        <mxCell id="EC_hGHCCztslLlzqZgj_-23" value="Acquiring Bank relays authorization response to Merchant payment gateway" style="whiteSpace=wrap;html=1;" vertex="1" parent="WIyWlLk6GJQsqaUBKTNV-1">
          <mxGeometry x="10" y="860" width="120" height="60" as="geometry" />
        </mxCell>
        <mxCell id="EC_hGHCCztslLlzqZgj_-25" value="" style="endArrow=classic;html=1;rounded=0;" edge="1" parent="WIyWlLk6GJQsqaUBKTNV-1">
          <mxGeometry width="50" height="50" relative="1" as="geometry">
            <mxPoint x="69.52000000000001" y="920" as="sourcePoint" />
            <mxPoint x="69.52000000000001" y="960" as="targetPoint" />
          </mxGeometry>
        </mxCell>
        <mxCell id="EC_hGHCCztslLlzqZgj_-26" value="Merchant System informs whether transaction approved or denied&amp;nbsp;" style="whiteSpace=wrap;html=1;" vertex="1" parent="WIyWlLk6GJQsqaUBKTNV-1">
          <mxGeometry x="10" y="960" width="120" height="60" as="geometry" />
        </mxCell>
        <mxCell id="EC_hGHCCztslLlzqZgj_-43" value="Yes" style="text;html=1;align=center;verticalAlign=middle;resizable=0;points=[];autosize=1;strokeColor=none;fillColor=none;" vertex="1" parent="WIyWlLk6GJQsqaUBKTNV-1">
          <mxGeometry x="70" y="598" width="40" height="30" as="geometry" />
        </mxCell>
        <mxCell id="EC_hGHCCztslLlzqZgj_-44" value="Yes" style="text;html=1;align=center;verticalAlign=middle;resizable=0;points=[];autosize=1;strokeColor=none;fillColor=none;" vertex="1" parent="WIyWlLk6GJQsqaUBKTNV-1">
          <mxGeometry x="70" y="718" width="40" height="30" as="geometry" />
        </mxCell>
        <mxCell id="EC_hGHCCztslLlzqZgj_-47" value="End" style="ellipse;whiteSpace=wrap;html=1;" vertex="1" parent="WIyWlLk6GJQsqaUBKTNV-1">
          <mxGeometry x="10" y="1050" width="120" height="80" as="geometry" />
        </mxCell>
        <mxCell id="EC_hGHCCztslLlzqZgj_-49" value="No" style="text;html=1;align=center;verticalAlign=middle;resizable=0;points=[];autosize=1;strokeColor=none;fillColor=none;" vertex="1" parent="WIyWlLk6GJQsqaUBKTNV-1">
          <mxGeometry x="120" y="538" width="40" height="30" as="geometry" />
        </mxCell>
        <mxCell id="EC_hGHCCztslLlzqZgj_-51" value="No" style="text;html=1;align=center;verticalAlign=middle;resizable=0;points=[];autosize=1;strokeColor=none;fillColor=none;" vertex="1" parent="WIyWlLk6GJQsqaUBKTNV-1">
          <mxGeometry x="130" y="650" width="40" height="30" as="geometry" />
        </mxCell>
        <mxCell id="EC_hGHCCztslLlzqZgj_-52" value="Transaction denied&lt;br&gt;" style="rounded=0;whiteSpace=wrap;html=1;" vertex="1" parent="WIyWlLk6GJQsqaUBKTNV-1">
          <mxGeometry x="230" y="598" width="120" height="60" as="geometry" />
        </mxCell>
        <mxCell id="EC_hGHCCztslLlzqZgj_-53" value="" style="endArrow=classic;html=1;rounded=0;entryX=0.803;entryY=-0.031;entryDx=0;entryDy=0;entryPerimeter=0;" edge="1" parent="WIyWlLk6GJQsqaUBKTNV-1" target="EC_hGHCCztslLlzqZgj_-52">
          <mxGeometry width="50" height="50" relative="1" as="geometry">
            <mxPoint x="110" y="560" as="sourcePoint" />
            <mxPoint x="160" y="510" as="targetPoint" />
            <Array as="points">
              <mxPoint x="326" y="560" />
            </Array>
          </mxGeometry>
        </mxCell>
        <mxCell id="EC_hGHCCztslLlzqZgj_-54" value="" style="endArrow=classic;html=1;rounded=0;" edge="1" parent="WIyWlLk6GJQsqaUBKTNV-1">
          <mxGeometry width="50" height="50" relative="1" as="geometry">
            <mxPoint x="110" y="680" as="sourcePoint" />
            <mxPoint x="240" y="660" as="targetPoint" />
            <Array as="points">
              <mxPoint x="240" y="680" />
            </Array>
          </mxGeometry>
        </mxCell>
        <mxCell id="EC_hGHCCztslLlzqZgj_-55" value="" style="endArrow=classic;html=1;rounded=0;" edge="1" parent="WIyWlLk6GJQsqaUBKTNV-1">
          <mxGeometry width="50" height="50" relative="1" as="geometry">
            <mxPoint x="280" y="658" as="sourcePoint" />
            <mxPoint x="130" y="790" as="targetPoint" />
            <Array as="points">
              <mxPoint x="280" y="790" />
            </Array>
          </mxGeometry>
        </mxCell>
        <mxCell id="EC_hGHCCztslLlzqZgj_-56" value="Approved" style="rhombus;whiteSpace=wrap;html=1;" vertex="1" parent="WIyWlLk6GJQsqaUBKTNV-1">
          <mxGeometry x="240" y="950" width="80" height="80" as="geometry" />
        </mxCell>
        <mxCell id="EC_hGHCCztslLlzqZgj_-57" value="Funds are transferred to merchant&#39;s account successfully" style="rounded=0;whiteSpace=wrap;html=1;" vertex="1" parent="WIyWlLk6GJQsqaUBKTNV-1">
          <mxGeometry x="230" y="1060" width="120" height="60" as="geometry" />
        </mxCell>
        <mxCell id="EC_hGHCCztslLlzqZgj_-58" value="" style="endArrow=classic;html=1;rounded=0;entryX=0.079;entryY=0.371;entryDx=0;entryDy=0;entryPerimeter=0;" edge="1" parent="WIyWlLk6GJQsqaUBKTNV-1" target="EC_hGHCCztslLlzqZgj_-56">
          <mxGeometry width="50" height="50" relative="1" as="geometry">
            <mxPoint x="130" y="980" as="sourcePoint" />
            <mxPoint x="180" y="930" as="targetPoint" />
          </mxGeometry>
        </mxCell>
        <mxCell id="EC_hGHCCztslLlzqZgj_-60" value="" style="endArrow=classic;html=1;rounded=0;entryX=0.427;entryY=0.015;entryDx=0;entryDy=0;entryPerimeter=0;" edge="1" parent="WIyWlLk6GJQsqaUBKTNV-1" target="EC_hGHCCztslLlzqZgj_-57">
          <mxGeometry width="50" height="50" relative="1" as="geometry">
            <mxPoint x="280" y="1030" as="sourcePoint" />
            <mxPoint x="330" y="980" as="targetPoint" />
          </mxGeometry>
        </mxCell>
        <mxCell id="EC_hGHCCztslLlzqZgj_-61" value="yes" style="text;html=1;align=center;verticalAlign=middle;resizable=0;points=[];autosize=1;strokeColor=none;fillColor=none;" vertex="1" parent="WIyWlLk6GJQsqaUBKTNV-1">
          <mxGeometry x="290" y="1028" width="40" height="30" as="geometry" />
        </mxCell>
        <mxCell id="EC_hGHCCztslLlzqZgj_-63" value="" style="endArrow=classic;html=1;rounded=0;entryX=1;entryY=0.5;entryDx=0;entryDy=0;" edge="1" parent="WIyWlLk6GJQsqaUBKTNV-1" target="EC_hGHCCztslLlzqZgj_-47">
          <mxGeometry width="50" height="50" relative="1" as="geometry">
            <mxPoint x="230" y="1090" as="sourcePoint" />
            <mxPoint x="280" y="1040" as="targetPoint" />
          </mxGeometry>
        </mxCell>
        <mxCell id="EC_hGHCCztslLlzqZgj_-65" value="" style="endArrow=classic;html=1;rounded=0;" edge="1" parent="WIyWlLk6GJQsqaUBKTNV-1">
          <mxGeometry width="50" height="50" relative="1" as="geometry">
            <mxPoint x="250" y="1010" as="sourcePoint" />
            <mxPoint x="130" y="1070" as="targetPoint" />
          </mxGeometry>
        </mxCell>
        <mxCell id="EC_hGHCCztslLlzqZgj_-66" value="NO" style="text;html=1;align=center;verticalAlign=middle;resizable=0;points=[];autosize=1;strokeColor=none;fillColor=none;" vertex="1" parent="WIyWlLk6GJQsqaUBKTNV-1">
          <mxGeometry x="160" y="1028" width="40" height="30" as="geometry" />
        </mxCell>
        <mxCell id="EC_hGHCCztslLlzqZgj_-67" value="1" style="text;html=1;align=center;verticalAlign=middle;resizable=0;points=[];autosize=1;strokeColor=none;fillColor=none;" vertex="1" parent="WIyWlLk6GJQsqaUBKTNV-1">
          <mxGeometry x="75" y="88" width="30" height="30" as="geometry" />
        </mxCell>
        <mxCell id="EC_hGHCCztslLlzqZgj_-68" value="2" style="text;html=1;align=center;verticalAlign=middle;resizable=0;points=[];autosize=1;strokeColor=none;fillColor=none;" vertex="1" parent="WIyWlLk6GJQsqaUBKTNV-1">
          <mxGeometry x="75" y="188" width="30" height="30" as="geometry" />
        </mxCell>
        <mxCell id="EC_hGHCCztslLlzqZgj_-69" value="3" style="text;html=1;align=center;verticalAlign=middle;resizable=0;points=[];autosize=1;strokeColor=none;fillColor=none;" vertex="1" parent="WIyWlLk6GJQsqaUBKTNV-1">
          <mxGeometry x="75" y="288" width="30" height="30" as="geometry" />
        </mxCell>
        <mxCell id="EC_hGHCCztslLlzqZgj_-70" value="4" style="text;html=1;align=center;verticalAlign=middle;resizable=0;points=[];autosize=1;strokeColor=none;fillColor=none;" vertex="1" parent="WIyWlLk6GJQsqaUBKTNV-1">
          <mxGeometry x="75" y="388" width="30" height="30" as="geometry" />
        </mxCell>
        <mxCell id="EC_hGHCCztslLlzqZgj_-71" value="5&lt;br&gt;" style="text;html=1;align=center;verticalAlign=middle;resizable=0;points=[];autosize=1;strokeColor=none;fillColor=none;" vertex="1" parent="WIyWlLk6GJQsqaUBKTNV-1">
          <mxGeometry x="75" y="488" width="30" height="30" as="geometry" />
        </mxCell>
        <mxCell id="EC_hGHCCztslLlzqZgj_-72" value="6" style="text;html=1;align=center;verticalAlign=middle;resizable=0;points=[];autosize=1;strokeColor=none;fillColor=none;" vertex="1" parent="WIyWlLk6GJQsqaUBKTNV-1">
          <mxGeometry x="165" y="538" width="30" height="30" as="geometry" />
        </mxCell>
        <mxCell id="EC_hGHCCztslLlzqZgj_-73" value="7" style="text;html=1;align=center;verticalAlign=middle;resizable=0;points=[];autosize=1;strokeColor=none;fillColor=none;" vertex="1" parent="WIyWlLk6GJQsqaUBKTNV-1">
          <mxGeometry x="35" y="608" width="30" height="30" as="geometry" />
        </mxCell>
        <mxCell id="EC_hGHCCztslLlzqZgj_-74" value="8" style="text;html=1;align=center;verticalAlign=middle;resizable=0;points=[];autosize=1;strokeColor=none;fillColor=none;" vertex="1" parent="WIyWlLk6GJQsqaUBKTNV-1">
          <mxGeometry x="105" y="658" width="30" height="30" as="geometry" />
        </mxCell>
        <mxCell id="EC_hGHCCztslLlzqZgj_-75" value="9" style="text;html=1;align=center;verticalAlign=middle;resizable=0;points=[];autosize=1;strokeColor=none;fillColor=none;" vertex="1" parent="WIyWlLk6GJQsqaUBKTNV-1">
          <mxGeometry x="45" y="718" width="30" height="30" as="geometry" />
        </mxCell>
        <mxCell id="EC_hGHCCztslLlzqZgj_-76" value="10" style="text;html=1;align=center;verticalAlign=middle;resizable=0;points=[];autosize=1;strokeColor=none;fillColor=none;" vertex="1" parent="WIyWlLk6GJQsqaUBKTNV-1">
          <mxGeometry x="240" y="768" width="40" height="30" as="geometry" />
        </mxCell>
        <mxCell id="EC_hGHCCztslLlzqZgj_-77" value="11" style="text;html=1;align=center;verticalAlign=middle;resizable=0;points=[];autosize=1;strokeColor=none;fillColor=none;" vertex="1" parent="WIyWlLk6GJQsqaUBKTNV-1">
          <mxGeometry x="60" y="828" width="40" height="30" as="geometry" />
        </mxCell>
        <mxCell id="EC_hGHCCztslLlzqZgj_-78" value="12" style="text;html=1;align=center;verticalAlign=middle;resizable=0;points=[];autosize=1;strokeColor=none;fillColor=none;" vertex="1" parent="WIyWlLk6GJQsqaUBKTNV-1">
          <mxGeometry x="70" y="928" width="40" height="30" as="geometry" />
        </mxCell>
        <mxCell id="EC_hGHCCztslLlzqZgj_-79" value="13&lt;br&gt;" style="text;html=1;align=center;verticalAlign=middle;resizable=0;points=[];autosize=1;strokeColor=none;fillColor=none;" vertex="1" parent="WIyWlLk6GJQsqaUBKTNV-1">
          <mxGeometry x="170" y="948" width="40" height="30" as="geometry" />
        </mxCell>
        <mxCell id="EC_hGHCCztslLlzqZgj_-80" value="14" style="text;html=1;align=center;verticalAlign=middle;resizable=0;points=[];autosize=1;strokeColor=none;fillColor=none;" vertex="1" parent="WIyWlLk6GJQsqaUBKTNV-1">
          <mxGeometry x="180" y="1008" width="40" height="30" as="geometry" />
        </mxCell>
        <mxCell id="EC_hGHCCztslLlzqZgj_-82" value="15&lt;br&gt;" style="text;html=1;align=center;verticalAlign=middle;resizable=0;points=[];autosize=1;strokeColor=none;fillColor=none;" vertex="1" parent="WIyWlLk6GJQsqaUBKTNV-1">
          <mxGeometry x="250" y="1018" width="40" height="30" as="geometry" />
        </mxCell>
        <mxCell id="EC_hGHCCztslLlzqZgj_-83" value="16&lt;br&gt;" style="text;html=1;align=center;verticalAlign=middle;resizable=0;points=[];autosize=1;strokeColor=none;fillColor=none;" vertex="1" parent="WIyWlLk6GJQsqaUBKTNV-1">
          <mxGeometry x="150" y="1088" width="40" height="30" as="geometry" />
        </mxCell>
      </root>
    </mxGraphModel>
  </diagram>
</mxfile>
